<svg width="866" height="866" viewBox="0 0 866 866" fill="none" xmlns="http://www.w3.org/2000/svg">
<path d="M552.933 111.566C556.707 110.178 557.31 102.698 557.139 99.1311C560.114 105.307 561.289 108.463 561.505 109.269C566.712 119.559 558.476 121.703 553.707 121.489C549.496 120.544 533.74 123.462 526.389 125.039C528.979 121.518 548.215 113.301 552.933 111.566Z" fill="#D02E2E"/>
<path d="M552.933 111.566C556.707 110.178 557.31 102.698 557.139 99.1311C560.114 105.307 561.289 108.463 561.505 109.269C566.712 119.559 558.476 121.703 553.707 121.489C549.496 120.544 533.74 123.462 526.389 125.039C528.979 121.518 548.215 113.301 552.933 111.566Z" fill="url(#paint0_radial)"/>
<path d="M488.529 138.482C499.821 148.272 509.96 148.131 513.618 146.836L551.102 186.5C556.076 190.114 552.426 202.871 553.491 210.36C554.342 216.351 559.007 222.153 561.232 224.305C551.824 221.549 545.949 208.298 544.188 202.016C540.15 208.752 540.725 219.278 541.517 223.699C537.434 222.531 532.652 206.442 530.771 198.544C524.567 197.191 515.333 203.937 511.492 207.479C514.603 200.803 514.669 191.786 514.313 188.112C512.512 172.952 491.128 167.233 480.661 166.268C485.246 165.794 498.379 162.934 504.372 161.564C491.415 152.597 488.411 142.44 488.529 138.482Z" fill="#B6063B"/>
<path d="M488.529 138.482C499.821 148.272 509.96 148.131 513.618 146.836L551.102 186.5C556.076 190.114 552.426 202.871 553.491 210.36C554.342 216.351 559.007 222.153 561.232 224.305C551.824 221.549 545.949 208.298 544.188 202.016C540.15 208.752 540.725 219.278 541.517 223.699C537.434 222.531 532.652 206.442 530.771 198.544C524.567 197.191 515.333 203.937 511.492 207.479C514.603 200.803 514.669 191.786 514.313 188.112C512.512 172.952 491.128 167.233 480.661 166.268C485.246 165.794 498.379 162.934 504.372 161.564C491.415 152.597 488.411 142.44 488.529 138.482Z" fill="url(#paint1_linear)"/>
<path d="M591.171 107.445C590.242 115.233 581.83 116.545 577.74 116.227L565.587 151.758L594.141 139.631C596.247 136.239 606.016 133.543 610.637 132.619C604.228 126.987 593.015 129.567 588.209 131.561C595.647 124.857 593.283 112.69 591.171 107.445Z" fill="#FF0000"/>
<path d="M609.47 161.673C610.446 154.061 591.232 150.462 581.503 149.613L580.959 173.081C596.702 158.686 606.526 159.478 609.47 161.673Z" fill="#D02E2E"/>
<path d="M609.47 161.673C610.446 154.061 591.232 150.462 581.503 149.613L580.959 173.081C596.702 158.686 606.526 159.478 609.47 161.673Z" fill="url(#paint2_radial)"/>
<path d="M517.896 181.263C509.898 173.982 499.279 153.458 520.78 129.605C522.028 127.229 529.012 122.169 546.964 120.94C554.733 121.214 570.27 121.055 570.266 118.229C572.635 116.81 577.242 112.261 576.73 105.425C580.199 109.286 586.445 119.878 583.68 131.362C582.506 136.235 578.807 139.293 576.341 139.933C583.486 138.314 599.462 137.047 608.189 144.583C600.009 143.948 584.095 147.505 585.877 166.817C587.659 186.128 563.827 195.89 551.688 198.357C546.461 199.365 534.197 199.369 526.952 191.322C525.497 191.319 521.837 190.007 518.838 184.78L517.896 181.263Z" fill="#D02E2E"/>
<path d="M517.896 181.263C509.898 173.982 499.279 153.458 520.78 129.605C522.028 127.229 529.012 122.169 546.964 120.94C554.733 121.214 570.27 121.055 570.266 118.229C572.635 116.81 577.242 112.261 576.73 105.425C580.199 109.286 586.445 119.878 583.68 131.362C582.506 136.235 578.807 139.293 576.341 139.933C583.486 138.314 599.462 137.047 608.189 144.583C600.009 143.948 584.095 147.505 585.877 166.817C587.659 186.128 563.827 195.89 551.688 198.357C546.461 199.365 534.197 199.369 526.952 191.322C525.497 191.319 521.837 190.007 518.838 184.78L517.896 181.263Z" fill="url(#paint3_radial)"/>
<path d="M327 174C327 171.239 329.239 169 332 169H533C535.761 169 538 171.239 538 174V590C538 617.614 515.614 640 488 640H377C349.386 640 327 617.614 327 590V174Z" fill="white" fill-opacity="0.25"/>
<path d="M327 174C327 171.239 329.239 169 332 169H533C535.761 169 538 171.239 538 174V590C538 617.614 515.614 640 488 640H377C349.386 640 327 617.614 327 590V174Z" fill="url(#paint4_radial)"/>
<path d="M330.207 275C330.207 272.239 332.445 270 335.207 270H529.793C532.555 270 534.793 272.239 534.793 275V586C534.793 613.614 512.408 636 484.793 636H380.207C352.592 636 330.207 613.614 330.207 586V275Z" fill="#D02E2E"/>
<path d="M330.207 275C330.207 272.239 332.445 270 335.207 270H529.793C532.555 270 534.793 272.239 534.793 275V586C534.793 613.614 512.408 636 484.793 636H380.207C352.592 636 330.207 613.614 330.207 586V275Z" fill="url(#paint5_radial)" fill-opacity="0.6"/>
<path d="M177.359 754V685.75H196.812C203.031 685.75 207.703 687.266 210.828 690.297C213.984 693.328 215.562 697.875 215.562 703.938C215.562 707.125 214.766 709.938 213.172 712.375C211.578 714.812 209.422 716.703 206.703 718.047C209.828 718.984 212.297 720.906 214.109 723.812C215.953 726.719 216.875 730.219 216.875 734.312C216.875 740.438 215.188 745.25 211.812 748.75C208.469 752.25 203.688 754 197.469 754H177.359ZM185.938 722.078V746.641H197.656C200.906 746.641 203.484 745.578 205.391 743.453C207.297 741.297 208.25 738.281 208.25 734.406C208.25 726.188 204.781 722.078 197.844 722.078H185.938ZM185.938 714.859H196.953C199.922 714.859 202.312 713.859 204.125 711.859C205.969 709.859 206.891 707.203 206.891 703.891C206.891 700.141 206.062 697.422 204.406 695.734C202.75 694.016 200.219 693.156 196.812 693.156H185.938V714.859ZM264.693 685.75V734.266C264.631 740.734 262.756 745.797 259.068 749.453C255.381 753.109 250.24 754.938 243.646 754.938C236.896 754.938 231.74 753.156 228.177 749.594C224.615 746 222.802 740.891 222.74 734.266V685.75H231.271V733.938C231.271 738.531 232.24 741.969 234.177 744.25C236.146 746.5 239.302 747.625 243.646 747.625C248.021 747.625 251.177 746.5 253.115 744.25C255.084 741.969 256.068 738.531 256.068 733.938V685.75H264.693ZM289.917 720.016L303.886 685.75H313.589L294.183 728.547V754H285.605V728.547L266.199 685.75H275.949L289.917 720.016ZM323.158 746.641H355.548V754H313.642V747.25L344.72 693.156H313.97V685.75H354.283V692.359L323.158 746.641ZM404.304 725.875C404.304 735.188 402.319 742.359 398.351 747.391C394.382 752.422 388.741 754.938 381.429 754.938C374.397 754.938 368.835 752.5 364.741 747.625C360.679 742.719 358.569 735.797 358.413 726.859V714.016C358.413 704.891 360.429 697.75 364.46 692.594C368.491 687.406 374.116 684.812 381.335 684.812C388.522 684.812 394.116 687.297 398.116 692.266C402.147 697.203 404.21 704.266 404.304 713.453V725.875ZM395.726 713.922C395.726 706.703 394.538 701.344 392.163 697.844C389.819 694.312 386.21 692.547 381.335 692.547C376.616 692.547 373.038 694.328 370.601 697.891C368.194 701.453 366.976 706.703 366.944 713.641V725.875C366.944 732.844 368.147 738.156 370.554 741.812C372.991 745.469 376.616 747.297 381.429 747.297C386.241 747.297 389.804 745.609 392.116 742.234C394.429 738.859 395.632 733.688 395.726 726.719V713.922ZM411.809 754V685.75H431.262C437.481 685.75 442.153 687.266 445.278 690.297C448.434 693.328 450.012 697.875 450.012 703.938C450.012 707.125 449.216 709.938 447.622 712.375C446.028 714.812 443.872 716.703 441.153 718.047C444.278 718.984 446.747 720.906 448.559 723.812C450.403 726.719 451.325 730.219 451.325 734.312C451.325 740.438 449.637 745.25 446.262 748.75C442.919 752.25 438.137 754 431.919 754H411.809ZM420.387 722.078V746.641H432.106C435.356 746.641 437.934 745.578 439.841 743.453C441.747 741.297 442.7 738.281 442.7 734.406C442.7 726.188 439.231 722.078 432.294 722.078H420.387ZM420.387 714.859H431.403C434.372 714.859 436.762 713.859 438.575 711.859C440.419 709.859 441.341 707.203 441.341 703.891C441.341 700.141 440.512 697.422 438.856 695.734C437.2 694.016 434.669 693.156 431.262 693.156H420.387V714.859ZM502.846 725.875C502.846 735.188 500.862 742.359 496.893 747.391C492.924 752.422 487.284 754.938 479.971 754.938C472.94 754.938 467.378 752.5 463.284 747.625C459.221 742.719 457.112 735.797 456.956 726.859V714.016C456.956 704.891 458.971 697.75 463.003 692.594C467.034 687.406 472.659 684.812 479.878 684.812C487.065 684.812 492.659 687.297 496.659 692.266C500.69 697.203 502.753 704.266 502.846 713.453V725.875ZM494.268 713.922C494.268 706.703 493.081 701.344 490.706 697.844C488.362 694.312 484.753 692.547 479.878 692.547C475.159 692.547 471.581 694.328 469.143 697.891C466.737 701.453 465.518 706.703 465.487 713.641V725.875C465.487 732.844 466.69 738.156 469.096 741.812C471.534 745.469 475.159 747.297 479.971 747.297C484.784 747.297 488.346 745.609 490.659 742.234C492.971 738.859 494.174 733.688 494.268 726.719V713.922Z" fill="#AC2B5A"/>
<path d="M509.742 749.453C509.742 747.953 510.18 746.703 511.055 745.703C511.961 744.703 513.305 744.203 515.086 744.203C516.867 744.203 518.211 744.703 519.117 745.703C520.055 746.703 520.524 747.953 520.524 749.453C520.524 750.891 520.055 752.094 519.117 753.062C518.211 754.031 516.867 754.516 515.086 754.516C513.305 754.516 511.961 754.031 511.055 753.062C510.18 752.094 509.742 750.891 509.742 749.453ZM572.701 732.344C572.326 739.656 570.264 745.25 566.514 749.125C562.795 753 557.529 754.938 550.717 754.938C543.873 754.938 538.436 752.344 534.404 747.156C530.373 741.938 528.357 734.875 528.357 725.969V713.594C528.357 704.719 530.42 697.703 534.545 692.547C538.701 687.391 544.357 684.812 551.514 684.812C558.107 684.812 563.201 686.797 566.795 690.766C570.42 694.703 572.389 700.344 572.701 707.688H564.029C563.654 702.125 562.482 698.156 560.514 695.781C558.545 693.406 555.545 692.219 551.514 692.219C546.857 692.219 543.279 694.047 540.779 697.703C538.279 701.328 537.029 706.656 537.029 713.688V726.203C537.029 733.109 538.186 738.406 540.498 742.094C542.842 745.781 546.248 747.625 550.717 747.625C555.186 747.625 558.404 746.516 560.373 744.297C562.342 742.078 563.561 738.094 564.029 732.344H572.701ZM623.004 725.875C623.004 735.188 621.019 742.359 617.051 747.391C613.082 752.422 607.441 754.938 600.129 754.938C593.098 754.938 587.535 752.5 583.441 747.625C579.379 742.719 577.269 735.797 577.113 726.859V714.016C577.113 704.891 579.129 697.75 583.16 692.594C587.191 687.406 592.816 684.812 600.035 684.812C607.223 684.812 612.816 687.297 616.816 692.266C620.848 697.203 622.91 704.266 623.004 713.453V725.875ZM614.426 713.922C614.426 706.703 613.238 701.344 610.863 697.844C608.519 694.312 604.91 692.547 600.035 692.547C595.316 692.547 591.738 694.328 589.301 697.891C586.894 701.453 585.676 706.703 585.644 713.641V725.875C585.644 732.844 586.848 738.156 589.254 741.812C591.691 745.469 595.316 747.297 600.129 747.297C604.941 747.297 608.504 745.609 610.816 742.234C613.129 738.859 614.332 733.688 614.426 726.719V713.922ZM641.572 685.75L659.384 741.438L677.197 685.75H688.259V754H679.681V727.422L680.478 700.797L662.619 754H656.056L638.291 700.984L639.087 727.422V754H630.509V685.75H641.572Z" fill="black"/>
<defs>
<radialGradient id="paint0_radial" cx="0" cy="0" r="1" gradientUnits="userSpaceOnUse" gradientTransform="translate(543.288 113.908) rotate(119.457) scale(27.7452 20.6697)">
<stop stop-color="#AB1D1D"/>
<stop offset="1" stop-color="#D02E2E" stop-opacity="0.9"/>
</radialGradient>
<linearGradient id="paint1_linear" x1="520.345" y1="182.491" x2="492.041" y2="219.287" gradientUnits="userSpaceOnUse">
<stop stop-color="#B6063B"/>
<stop offset="1" stop-color="white" stop-opacity="0"/>
</linearGradient>
<radialGradient id="paint2_radial" cx="0" cy="0" r="1" gradientUnits="userSpaceOnUse" gradientTransform="translate(592.925 158.214) rotate(54.42) scale(54.568 21.7618)">
<stop stop-color="#AB1D1D"/>
<stop offset="0.667162" stop-color="#AB1D1D" stop-opacity="0"/>
</radialGradient>
<radialGradient id="paint3_radial" cx="0" cy="0" r="1" gradientUnits="userSpaceOnUse" gradientTransform="translate(514.022 141.31) rotate(121.236) scale(44.7418 49.1299)">
<stop stop-color="#EA1919"/>
<stop offset="1" stop-color="#D02E2E" stop-opacity="0"/>
</radialGradient>
<radialGradient id="paint4_radial" cx="0" cy="0" r="1" gradientUnits="userSpaceOnUse" gradientTransform="translate(377.666 245) rotate(80.3848) scale(161.265 79.6256)">
<stop stop-color="white"/>
<stop offset="1" stop-color="white" stop-opacity="0"/>
</radialGradient>
<radialGradient id="paint5_radial" cx="0" cy="0" r="1" gradientUnits="userSpaceOnUse" gradientTransform="translate(386.644 484) rotate(73.2902) scale(196.289 112.487)">
<stop stop-color="#AC2B5A"/>
<stop offset="1" stop-color="#AE3D3D" stop-opacity="0.42"/>
</radialGradient>
</defs>
</svg>
